<svg width="201" height="36" viewBox="0 0 201 36" fill="none" xmlns="http://www.w3.org/2000/svg">
<path d="M167.531 30.9273C167.531 30.4364 167.202 30.1091 166.707 30.1091H152.363C151.869 30.1091 151.539 30.4364 151.539 30.9273C151.539 31.4182 151.869 31.7454 152.363 31.7454H166.707C167.202 31.7454 167.531 31.3364 167.531 30.9273Z" fill="white"/>
<path d="M155.661 34.2H154.012C153.517 34.2 153.188 34.5273 153.188 35.0182C153.188 35.5091 153.517 35.8364 154.012 35.8364H155.661C156.155 35.8364 156.485 35.5091 156.485 35.0182C156.485 34.5273 156.155 34.2 155.661 34.2Z" fill="white"/>
<path d="M159.535 26.8364C159.535 26.3455 159.205 26.0182 158.711 26.0182H150.715C150.22 26.0182 149.89 26.3455 149.89 26.8364C149.89 27.3273 150.22 27.6545 150.715 27.6545H158.711C159.205 27.6545 159.535 27.2455 159.535 26.8364Z" fill="white"/>
<path d="M200.505 28.2273C200.258 27.7364 199.763 27.3273 199.269 27.0818L193.004 24.7091L190.448 23.8091C189.706 23.4818 189.047 22.9909 188.635 22.3364L186.491 18.8182C186.904 18.7364 187.151 18.4091 187.151 18C187.151 17.5091 186.821 17.1818 186.327 17.1818H185.502L184.513 15.5455C184.925 15.4636 185.172 15.1364 185.172 14.7273C185.172 14.2364 184.843 13.9091 184.348 13.9091H183.524L182.699 12.6C183.029 12.5182 183.276 12.1909 183.276 11.8636C183.276 11.3727 182.947 11.0455 182.452 11.0455H181.71L180.639 9.32727C180.639 9.32727 180.639 9.24545 180.556 9.24545C179.567 8.1 178.248 7.52727 176.847 7.69091C175.61 7.85454 174.621 8.59091 174.209 9.49091C174.126 9.73636 174.126 9.98182 174.291 10.2273L181.133 21.8455C181.216 22.0091 181.38 22.1727 181.545 22.1727L189.954 25.3636H190.036L192.509 26.2636L198.692 28.6364C198.857 28.7182 199.022 28.8 199.104 29.0455C199.434 29.7 199.434 30.3545 199.022 31.0091H185.585C184.76 31.0091 183.936 30.7636 183.276 30.2727L160.277 13.3364C160.277 13.3364 160.607 13.1727 161.019 12.6C161.431 12.0273 161.596 11.2909 161.596 10.5545L160.854 3.68182L161.843 2.12727C162.091 1.8 162.585 1.71818 162.915 1.96363C163.162 2.20909 164.152 3.02727 166.542 6.87273C167.779 8.67273 169.757 9.98182 171.983 10.3091C172.395 10.3909 172.89 10.0636 172.972 9.65454C173.055 9.24545 172.725 8.75454 172.313 8.67273C170.581 8.34545 168.933 7.36363 167.944 5.89091C165.058 1.47273 164.234 0.81818 163.904 0.572725C162.833 -0.163638 161.349 0.0818163 160.524 1.14545L155.496 9.08182C155.166 9.57273 155.084 10.1455 155.166 10.7182C154.672 10.8818 154.177 11.1273 153.93 11.6182L152.611 13.6636C151.869 14.7273 152.199 16.2 153.27 16.9364C154.012 17.5091 155.578 18.4909 157.887 19.9636C158.051 20.0455 158.216 20.1273 158.299 20.1273C158.546 20.1273 158.793 19.9636 158.958 19.7182C159.205 19.3091 159.123 18.8182 158.711 18.5727C156.485 17.1 154.919 16.1182 154.177 15.5455C153.847 15.3 153.765 14.8909 154.012 14.4818L155.249 12.6C155.496 12.2727 155.991 12.1909 156.32 12.4364L182.205 31.5818C183.194 32.3182 184.348 32.6455 185.502 32.6455H196.878C195.147 33.4636 192.757 34.2 190.696 34.2H187.81H185.42C184.018 34.2 182.617 33.7909 181.463 33.0545C176.682 30.0273 167.779 24.3818 161.266 20.2091C160.854 19.9636 160.36 20.0455 160.112 20.4545C159.865 20.8636 159.947 21.3545 160.36 21.6C166.707 25.6909 175.363 31.1727 180.226 34.2818H158.958C158.464 34.2818 158.134 34.6091 158.134 35.1C158.134 35.5909 158.464 35.9182 158.958 35.9182H185.42H187.81H190.613C193.993 35.9182 198.857 34.1182 200.093 32.4C201.165 30.9273 201.247 29.5364 200.505 28.2273ZM182.287 20.8636L175.857 9.98182C176.105 9.73636 176.517 9.49091 177.011 9.40909C177.506 9.32727 178.413 9.40909 179.237 10.3091L179.732 11.1273H178.99C178.495 11.1273 178.166 11.4545 178.166 11.9455C178.166 12.4364 178.495 12.7636 178.99 12.7636H180.721L181.545 14.0727H180.886C180.391 14.0727 180.062 14.4 180.062 14.8909C180.062 15.3818 180.391 15.7091 180.886 15.7091H182.535L183.524 17.2636H182.864C182.37 17.2636 182.04 17.5909 182.04 18.0818C182.04 18.5727 182.37 18.9 182.864 18.9H184.513L186.821 22.5L182.287 20.8636ZM156.897 9.98182L159.453 5.97273L159.947 10.7182C159.947 11.0455 159.865 11.3727 159.7 11.6182C159.535 11.8636 159.205 12.5182 158.464 11.9455C158.464 11.9455 158.051 11.7 157.309 11.1273C156.815 10.7182 156.732 10.3091 156.897 9.98182Z" fill="white"/>
<path d="M17.3584 13.293V34.6211H12.9639L4.39453 20.3242V34.6211H0V13.293H4.39453L12.9785 27.6045V13.293H17.3584Z" fill="white"/>
<path d="M30.1172 16.9404L24.3164 34.6211H19.6436L27.5684 13.293H30.542L30.1172 16.9404ZM34.9365 34.6211L29.1211 16.9404L28.6523 13.293H31.6553L39.624 34.6211H34.9365ZM34.6729 26.6816V30.124H23.4082V26.6816H34.6729Z" fill="white"/>
<path d="M52.7051 29.04C52.7051 28.6592 52.6465 28.3174 52.5293 28.0146C52.4219 27.7021 52.2168 27.4189 51.9141 27.165C51.6113 26.9014 51.1865 26.6426 50.6396 26.3887C50.0928 26.1348 49.3848 25.8711 48.5156 25.5977C47.5488 25.2852 46.6309 24.9336 45.7617 24.543C44.9023 24.1523 44.1406 23.6982 43.4766 23.1807C42.8223 22.6533 42.3047 22.043 41.9238 21.3496C41.5527 20.6562 41.3672 19.8506 41.3672 18.9326C41.3672 18.0439 41.5625 17.2383 41.9531 16.5156C42.3438 15.7832 42.8906 15.1582 43.5938 14.6406C44.2969 14.1133 45.127 13.708 46.084 13.4248C47.0508 13.1416 48.1104 13 49.2627 13C50.835 13 52.207 13.2832 53.3789 13.8496C54.5508 14.416 55.459 15.1924 56.1035 16.1787C56.7578 17.165 57.085 18.293 57.085 19.5625H52.7197C52.7197 18.9375 52.5879 18.3906 52.3242 17.9219C52.0703 17.4434 51.6797 17.0674 51.1523 16.7939C50.6348 16.5205 49.9805 16.3838 49.1895 16.3838C48.4277 16.3838 47.793 16.501 47.2852 16.7354C46.7773 16.96 46.3965 17.2676 46.1426 17.6582C45.8887 18.0391 45.7617 18.4688 45.7617 18.9473C45.7617 19.3086 45.8496 19.6357 46.0254 19.9287C46.2109 20.2217 46.4844 20.4951 46.8457 20.749C47.207 21.0029 47.6514 21.2422 48.1787 21.4668C48.7061 21.6914 49.3164 21.9111 50.0098 22.126C51.1719 22.4775 52.1924 22.873 53.0713 23.3125C53.96 23.752 54.7021 24.2451 55.2979 24.792C55.8936 25.3389 56.3428 25.959 56.6455 26.6523C56.9482 27.3457 57.0996 28.1318 57.0996 29.0107C57.0996 29.9385 56.9189 30.7686 56.5576 31.501C56.1963 32.2334 55.6738 32.8535 54.9902 33.3613C54.3066 33.8691 53.4912 34.2549 52.5439 34.5186C51.5967 34.7822 50.5371 34.9141 49.3652 34.9141C48.3105 34.9141 47.2705 34.7773 46.2451 34.5039C45.2197 34.2207 44.2871 33.7959 43.4473 33.2295C42.6172 32.6631 41.9531 31.9404 41.4551 31.0615C40.957 30.1826 40.708 29.1426 40.708 27.9414H45.1172C45.1172 28.6055 45.2197 29.167 45.4248 29.626C45.6299 30.085 45.918 30.4561 46.2891 30.7393C46.6699 31.0225 47.1191 31.2275 47.6367 31.3545C48.1641 31.4814 48.7402 31.5449 49.3652 31.5449C50.127 31.5449 50.752 31.4375 51.2402 31.2227C51.7383 31.0078 52.1045 30.71 52.3389 30.3291C52.583 29.9482 52.7051 29.5186 52.7051 29.04Z" fill="white"/>
<path d="M74.3115 21.9795V25.4072H63.1787V21.9795H74.3115ZM64.4824 13.293V34.6211H60.0879V13.293H64.4824ZM77.4463 13.293V34.6211H73.0664V13.293H77.4463Z" fill="white"/>
<path d="M98.7891 23.459V24.4697C98.7891 26.0908 98.5693 27.5459 98.1299 28.835C97.6904 30.124 97.0703 31.2227 96.2695 32.1309C95.4688 33.0293 94.5117 33.7178 93.3984 34.1963C92.2949 34.6748 91.0693 34.9141 89.7217 34.9141C88.3838 34.9141 87.1582 34.6748 86.0449 34.1963C84.9414 33.7178 83.9844 33.0293 83.1738 32.1309C82.3633 31.2227 81.7334 30.124 81.2842 28.835C80.8447 27.5459 80.625 26.0908 80.625 24.4697V23.459C80.625 21.8281 80.8447 20.373 81.2842 19.0938C81.7236 17.8047 82.3438 16.7061 83.1445 15.7979C83.9551 14.8896 84.9121 14.1963 86.0156 13.7178C87.1289 13.2393 88.3545 13 89.6924 13C91.04 13 92.2656 13.2393 93.3691 13.7178C94.4824 14.1963 95.4395 14.8896 96.2402 15.7979C97.0508 16.7061 97.6758 17.8047 98.1152 19.0938C98.5645 20.373 98.7891 21.8281 98.7891 23.459ZM94.3506 24.4697V23.4297C94.3506 22.2969 94.248 21.3008 94.043 20.4414C93.8379 19.582 93.5352 18.8594 93.1348 18.2734C92.7344 17.6875 92.2461 17.248 91.6699 16.9551C91.0938 16.6523 90.4346 16.501 89.6924 16.501C88.9502 16.501 88.291 16.6523 87.7148 16.9551C87.1484 17.248 86.665 17.6875 86.2646 18.2734C85.874 18.8594 85.5762 19.582 85.3711 20.4414C85.166 21.3008 85.0635 22.2969 85.0635 23.4297V24.4697C85.0635 25.5928 85.166 26.5889 85.3711 27.458C85.5762 28.3174 85.8789 29.0449 86.2793 29.6406C86.6797 30.2266 87.168 30.6709 87.7441 30.9736C88.3203 31.2764 88.9795 31.4277 89.7217 31.4277C90.4639 31.4277 91.123 31.2764 91.6992 30.9736C92.2754 30.6709 92.7588 30.2266 93.1494 29.6406C93.54 29.0449 93.8379 28.3174 94.043 27.458C94.248 26.5889 94.3506 25.5928 94.3506 24.4697Z" fill="white"/>
<path d="M116.265 31.1934V34.6211H104.912V31.1934H116.265ZM106.348 13.293V34.6211H101.953V13.293H106.348ZM114.785 21.9795V25.3193H104.912V21.9795H114.785ZM116.25 13.293V16.7354H104.912V13.293H116.25Z" fill="white"/>
<path d="M129.932 29.04C129.932 28.6592 129.873 28.3174 129.756 28.0146C129.648 27.7021 129.443 27.4189 129.141 27.165C128.838 26.9014 128.413 26.6426 127.866 26.3887C127.319 26.1348 126.611 25.8711 125.742 25.5977C124.775 25.2852 123.857 24.9336 122.988 24.543C122.129 24.1523 121.367 23.6982 120.703 23.1807C120.049 22.6533 119.531 22.043 119.15 21.3496C118.779 20.6562 118.594 19.8506 118.594 18.9326C118.594 18.0439 118.789 17.2383 119.18 16.5156C119.57 15.7832 120.117 15.1582 120.82 14.6406C121.523 14.1133 122.354 13.708 123.311 13.4248C124.277 13.1416 125.337 13 126.489 13C128.062 13 129.434 13.2832 130.605 13.8496C131.777 14.416 132.686 15.1924 133.33 16.1787C133.984 17.165 134.312 18.293 134.312 19.5625H129.946C129.946 18.9375 129.814 18.3906 129.551 17.9219C129.297 17.4434 128.906 17.0674 128.379 16.7939C127.861 16.5205 127.207 16.3838 126.416 16.3838C125.654 16.3838 125.02 16.501 124.512 16.7354C124.004 16.96 123.623 17.2676 123.369 17.6582C123.115 18.0391 122.988 18.4688 122.988 18.9473C122.988 19.3086 123.076 19.6357 123.252 19.9287C123.438 20.2217 123.711 20.4951 124.072 20.749C124.434 21.0029 124.878 21.2422 125.405 21.4668C125.933 21.6914 126.543 21.9111 127.236 22.126C128.398 22.4775 129.419 22.873 130.298 23.3125C131.187 23.752 131.929 24.2451 132.524 24.792C133.12 25.3389 133.569 25.959 133.872 26.6523C134.175 27.3457 134.326 28.1318 134.326 29.0107C134.326 29.9385 134.146 30.7686 133.784 31.501C133.423 32.2334 132.9 32.8535 132.217 33.3613C131.533 33.8691 130.718 34.2549 129.771 34.5186C128.823 34.7822 127.764 34.9141 126.592 34.9141C125.537 34.9141 124.497 34.7773 123.472 34.5039C122.446 34.2207 121.514 33.7959 120.674 33.2295C119.844 32.6631 119.18 31.9404 118.682 31.0615C118.184 30.1826 117.935 29.1426 117.935 27.9414H122.344C122.344 28.6055 122.446 29.167 122.651 29.626C122.856 30.085 123.145 30.4561 123.516 30.7393C123.896 31.0225 124.346 31.2275 124.863 31.3545C125.391 31.4814 125.967 31.5449 126.592 31.5449C127.354 31.5449 127.979 31.4375 128.467 31.2227C128.965 31.0078 129.331 30.71 129.565 30.3291C129.81 29.9482 129.932 29.5186 129.932 29.04Z" fill="white"/>
</svg>
